<?xml version="1.0" encoding="UTF-8"?>
<svg version="1.1" xmlns="http://www.w3.org/2000/svg" width="58" height="44">
<path d="M0 0 C-0.56696863 8.07930292 -2.77897532 13.44551368 -9 19 C-8.05125 19.721875 -7.1025 20.44375 -6.125 21.1875 C-3.30122206 23.57736407 -1.77950401 25.27570305 -1 29 C-0.93904737 33.27539161 -1.51455483 36.22998353 -3.8125 39.875 C-7.28342035 43.24675119 -8.98267183 43.90154889 -13.875 44.375 C-18.21449606 44.26249455 -20.57389902 42.68129642 -24 40 C-25.11864455 39.24055324 -26.243535 38.49021075 -27.375 37.75 C-28.24125 37.1725 -29.1075 36.595 -30 36 C-30.47050781 36.49371094 -30.94101562 36.98742188 -31.42578125 37.49609375 C-32.35970703 38.45708984 -32.35970703 38.45708984 -33.3125 39.4375 C-33.92738281 40.07558594 -34.54226562 40.71367188 -35.17578125 41.37109375 C-38.3035539 44.1639871 -41.75588115 44.44855796 -45.86328125 44.42578125 C-49.78828275 43.64365115 -52.39717572 40.91214543 -55 38 C-56.72589785 34.54820431 -56.36043965 30.78133961 -56 27 C-54.699544 23.85152757 -53.4485648 22.38259939 -50.875 20.1875 C-46.78427775 18.49785385 -43.34457984 17.96076496 -39 19 C-35.95382169 20.9961305 -33.49261851 23.35794393 -31 26 C-30.34 26.66 -29.68 27.32 -29 28 C-26.69 25.36 -24.38 22.72 -22 20 C-23.65 20 -25.3 20 -27 20 C-26.38722388 17.03824877 -25.74627478 15.61941217 -24 13 C-22.948125 12.773125 -21.89625 12.54625 -20.8125 12.3125 C-16.3595357 11.24083224 -14.48289098 8.35400321 -11.6953125 4.91015625 C-8.2507044 1.02901948 -5.06681708 0 0 0 Z M-9 7 C-9 7.99 -9 8.98 -9 10 C-8.01 10 -7.02 10 -6 10 C-6.33 9.01 -6.66 8.02 -7 7 C-7.66 7 -8.32 7 -9 7 Z M-50 26 C-51.96138387 28.58546056 -52.01298264 29.78795025 -51.8125 33.0625 C-50.96429365 36.12909218 -50.63183484 37.27569441 -48 39 C-44.58329399 40.03986705 -42.7626746 40.31623093 -39.4375 38.9375 C-36.44834223 36.56150279 -34.34334287 34.01286941 -32 31 C-32.66 31 -33.32 31 -34 31 C-34.226875 30.4225 -34.45375 29.845 -34.6875 29.25 C-36.37267277 26.3611324 -38.22687065 24.8487529 -41 23 C-45.32590054 23 -46.60584987 23.49904727 -50 26 Z M-22 23 C-21.67 23.66 -21.34 24.32 -21 25 C-20.67 24.34 -20.34 23.68 -20 23 C-20.66 23 -21.32 23 -22 23 Z M-23 28 C-24.03474916 29.30654963 -25.04269114 30.63569156 -26 32 C-24.78192862 33.15762119 -23.54998765 34.3006583 -22.3125 35.4375 C-21.62800781 36.07558594 -20.94351563 36.71367188 -20.23828125 37.37109375 C-17.73380136 39.19372571 -16.07185097 39.74984927 -13 40 C-10.16286436 38.61442213 -8.22998296 37.22998296 -6 35 C-5.68462284 30.66356399 -5.55102153 28.67346771 -8 25 C-9.97536745 25.34786708 -9.97536745 25.34786708 -12 26 C-12.33 26.66 -12.66 27.32 -13 28 C-13.99 28.33 -14.98 28.66 -16 29 C-16 27.35 -16 25.7 -16 24 C-18.47402284 24 -21.11862704 26.64541147 -23 28 Z " fill="#8DC23F" transform="translate(56,0)"/>
<path d="M0 0 C-0.52483734 7.47893216 -2.18978894 12.38139424 -7.75 17.5625 C-10.32420294 19.85704899 -10.32420294 19.85704899 -10.3125 23.3125 C-10.209375 24.199375 -10.10625 25.08625 -10 26 C-10.66 26 -11.32 26 -12 26 C-12.33 26.99 -12.66 27.98 -13 29 C-13.99 29 -14.98 29 -16 29 C-16.0825 28.38125 -16.165 27.7625 -16.25 27.125 C-16.79394438 24.82027141 -16.79394438 24.82027141 -19 23.9375 C-19.66 23.628125 -20.32 23.31875 -21 23 C-21.33 22.01 -21.66 21.02 -22 20 C-23.65 20 -25.3 20 -27 20 C-26.38722388 17.03824877 -25.74627478 15.61941217 -24 13 C-22.948125 12.773125 -21.89625 12.54625 -20.8125 12.3125 C-16.3595357 11.24083224 -14.48289098 8.35400321 -11.6953125 4.91015625 C-8.2507044 1.02901948 -5.06681708 0 0 0 Z M-9 7 C-9 7.99 -9 8.98 -9 10 C-8.01 10 -7.02 10 -6 10 C-6.33 9.01 -6.66 8.02 -7 7 C-7.66 7 -8.32 7 -9 7 Z " fill="#F59320" transform="translate(56,0)"/>
</svg>
