<?xml version="1.0" standalone="no"?>
<!DOCTYPE svg PUBLIC "-//W3C//DTD SVG 20010904//EN"
 "http://www.w3.org/TR/2001/REC-SVG-20010904/DTD/svg10.dtd">
<svg version="1.0" xmlns="http://www.w3.org/2000/svg"
 width="2000.000000pt" height="2000.000000pt" viewBox="0 0 2000.000000 2000.000000"
 preserveAspectRatio="xMidYMid meet">

<g transform="translate(0.000000,2000.000000) scale(0.100000,-0.100000)"
fill="#1a75bb" stroke="none">
<path d="M5640 12939 c0 -901 4 -1458 11 -1534 37 -429 223 -816 535 -1115
161 -154 164 -156 904 -583 267 -153 526 -303 575 -332 50 -29 165 -96 256
-148 205 -118 313 -180 1094 -632 341 -197 746 -431 900 -520 154 -89 442
-255 640 -370 198 -114 432 -249 520 -300 88 -51 248 -143 355 -205 107 -62
263 -152 345 -200 645 -372 1219 -703 1315 -760 103 -60 317 -184 635 -366 61
-35 299 -173 530 -306 l420 -244 3 1376 c2 849 -1 1432 -7 1525 -9 136 -31
270 -61 380 -46 167 -151 384 -258 535 -82 116 -289 325 -397 401 -44 32 -339
206 -655 389 -316 183 -642 372 -725 419 -82 48 -274 159 -425 246 -151 87
-369 213 -485 280 -115 67 -370 215 -565 327 -195 113 -544 314 -775 448 -231
134 -620 359 -865 500 -404 233 -2699 1560 -2915 1685 -506 293 -878 507 -890
511 -13 5 -15 -160 -15 -1407z"/>
<path d="M14320 14148 c-190 -110 -475 -275 -635 -367 -159 -92 -425 -246
-590 -341 -165 -95 -426 -246 -580 -335 -154 -88 -373 -215 -487 -280 -115
-66 -208 -123 -208 -126 0 -4 39 -29 88 -56 87 -49 309 -177 710 -410 117 -68
441 -256 720 -417 569 -329 591 -342 693 -425 328 -264 560 -649 634 -1053 11
-62 13 236 14 1970 1 1123 -2 2042 -6 2041 -5 0 -163 -91 -353 -201z"/>
<path d="M5641 7373 c-1 -1124 0 -2043 2 -2043 4 0 436 249 922 530 213 123
341 197 680 392 72 41 249 144 395 228 453 262 570 330 717 414 79 44 143 84
143 87 0 4 -98 63 -217 132 -120 69 -346 199 -503 289 -1458 841 -1349 777
-1475 874 -336 260 -573 650 -650 1066 -11 62 -13 -236 -14 -1969z"/>
</g>
</svg>
