<?xml version="1.0" encoding="UTF-8"?>
<svg version="1.1" xmlns="http://www.w3.org/2000/svg" width="512" height="512">
<path d="M0 0 C2.00707548 0.00536521 4.01392729 0.00001467 6.02099609 -0.00634766 C13.90205435 0.00143226 21.66892298 0.32240969 29.50927734 1.13037109 C29.50927734 1.79037109 29.50927734 2.45037109 29.50927734 3.13037109 C30.66427734 3.04787109 31.81927734 2.96537109 33.00927734 2.88037109 C40.3744254 2.83308282 47.46376664 5.19393625 54.50927734 7.13037109 C54.50927734 7.79037109 54.50927734 8.45037109 54.50927734 9.13037109 C57.47927734 9.46037109 60.44927734 9.79037109 63.50927734 10.13037109 C63.50927734 10.79037109 63.50927734 11.45037109 63.50927734 12.13037109 C65.81927734 12.46037109 68.12927734 12.79037109 70.50927734 13.13037109 C70.50927734 13.79037109 70.50927734 14.45037109 70.50927734 15.13037109 C71.39615234 15.23349609 72.28302734 15.33662109 73.19677734 15.44287109 C76.61028991 16.15133597 78.74851263 17.01919808 81.50927734 19.13037109 C81.50927734 20.12037109 81.50927734 21.11037109 81.50927734 22.13037109 C80.84927734 22.46037109 80.18927734 22.79037109 79.50927734 23.13037109 C79.17927734 24.12037109 78.84927734 25.11037109 78.50927734 26.13037109 C77.84927734 26.13037109 77.18927734 26.13037109 76.50927734 26.13037109 C76.17927734 27.12037109 75.84927734 28.11037109 75.50927734 29.13037109 C74.84927734 29.13037109 74.18927734 29.13037109 73.50927734 29.13037109 C73.40615234 29.89349609 73.30302734 30.65662109 73.19677734 31.44287109 C72.46216541 34.31453593 71.83767085 35.36079203 69.50927734 37.13037109 C68.84927734 37.13037109 68.18927734 37.13037109 67.50927734 37.13037109 C67.17927734 38.45037109 66.84927734 39.77037109 66.50927734 41.13037109 C65.84927734 41.13037109 65.18927734 41.13037109 64.50927734 41.13037109 C64.35458984 42.27505859 64.35458984 42.27505859 64.19677734 43.44287109 C63.46216541 46.31453593 62.83767085 47.36079203 60.50927734 49.13037109 C59.84927734 49.13037109 59.18927734 49.13037109 58.50927734 49.13037109 C58.17927734 50.45037109 57.84927734 51.77037109 57.50927734 53.13037109 C56.84927734 53.13037109 56.18927734 53.13037109 55.50927734 53.13037109 C55.17927734 54.12037109 54.84927734 55.11037109 54.50927734 56.13037109 C53.84927734 56.13037109 53.18927734 56.13037109 52.50927734 56.13037109 C52.32365234 57.33693359 52.32365234 57.33693359 52.13427734 58.56787109 C51.92802734 59.41349609 51.72177734 60.25912109 51.50927734 61.13037109 C50.51927734 61.62537109 50.51927734 61.62537109 49.50927734 62.13037109 C49.17927734 63.12037109 48.84927734 64.11037109 48.50927734 65.13037109 C47.84927734 65.13037109 47.18927734 65.13037109 46.50927734 65.13037109 C46.24115234 65.68724609 45.97302734 66.24412109 45.69677734 66.81787109 C44.40028238 69.34262444 43.08451411 71.76751594 41.50927734 74.13037109 C40.84927734 74.13037109 40.18927734 74.13037109 39.50927734 74.13037109 C39.17927734 75.45037109 38.84927734 76.77037109 38.50927734 78.13037109 C37.84927734 78.13037109 37.18927734 78.13037109 36.50927734 78.13037109 C36.17927734 79.12037109 35.84927734 80.11037109 35.50927734 81.13037109 C34.84927734 81.13037109 34.18927734 81.13037109 33.50927734 81.13037109 C33.35458984 82.27505859 33.35458984 82.27505859 33.19677734 83.44287109 C32.46216541 86.31453593 31.83767085 87.36079203 29.50927734 89.13037109 C28.84927734 89.13037109 28.18927734 89.13037109 27.50927734 89.13037109 C27.17927734 90.45037109 26.84927734 91.77037109 26.50927734 93.13037109 C25.84927734 93.13037109 25.18927734 93.13037109 24.50927734 93.13037109 C24.17927734 94.12037109 23.84927734 95.11037109 23.50927734 96.13037109 C9.97927734 96.13037109 -3.55072266 96.13037109 -17.49072266 96.13037109 C-17.49072266 96.79037109 -17.49072266 97.45037109 -17.49072266 98.13037109 C-19.59324127 98.80221727 -21.69780029 99.46768077 -23.80322266 100.13037109 C-24.97498047 100.50162109 -26.14673828 100.87287109 -27.35400391 101.25537109 C-30.49072266 102.13037109 -30.49072266 102.13037109 -33.49072266 102.13037109 C-33.49072266 102.79037109 -33.49072266 103.45037109 -33.49072266 104.13037109 C-40.24072266 108.13037109 -40.24072266 108.13037109 -42.49072266 108.13037109 C-42.49072266 108.79037109 -42.49072266 109.45037109 -42.49072266 110.13037109 C-43.48072266 110.46037109 -44.47072266 110.79037109 -45.49072266 111.13037109 C-46.29509766 111.95537109 -47.09947266 112.78037109 -47.92822266 113.63037109 C-50.46888084 116.109062 -51.23959716 116.43370134 -54.49072266 117.13037109 C-54.98572266 118.61537109 -54.98572266 118.61537109 -55.49072266 120.13037109 C-56.15072266 120.13037109 -56.81072266 120.13037109 -57.49072266 120.13037109 C-57.59384766 120.89349609 -57.69697266 121.65662109 -57.80322266 122.44287109 C-58.53783459 125.31453593 -59.16232915 126.36079203 -61.49072266 128.13037109 C-62.15072266 128.13037109 -62.81072266 128.13037109 -63.49072266 128.13037109 C-63.82072266 129.45037109 -64.15072266 130.77037109 -64.49072266 132.13037109 C-65.15072266 132.13037109 -65.81072266 132.13037109 -66.49072266 132.13037109 C-66.98572266 135.10037109 -66.98572266 135.10037109 -67.49072266 138.13037109 C-68.15072266 138.13037109 -68.81072266 138.13037109 -69.49072266 138.13037109 C-69.98572266 141.10037109 -69.98572266 141.10037109 -70.49072266 144.13037109 C-71.15072266 144.13037109 -71.81072266 144.13037109 -72.49072266 144.13037109 C-72.82072266 147.43037109 -73.15072266 150.73037109 -73.49072266 154.13037109 C-74.15072266 154.13037109 -74.81072266 154.13037109 -75.49072266 154.13037109 C-75.49072266 167.00037109 -75.49072266 179.87037109 -75.49072266 193.13037109 C-74.83072266 193.13037109 -74.17072266 193.13037109 -73.49072266 193.13037109 C-72.99572266 197.58537109 -72.99572266 197.58537109 -72.49072266 202.13037109 C-71.83072266 202.13037109 -71.17072266 202.13037109 -70.49072266 202.13037109 C-70.16072266 204.11037109 -69.83072266 206.09037109 -69.49072266 208.13037109 C-68.83072266 208.13037109 -68.17072266 208.13037109 -67.49072266 208.13037109 C-67.49072266 210.11037109 -67.49072266 212.09037109 -67.49072266 214.13037109 C-68.15072266 214.13037109 -68.81072266 214.13037109 -69.49072266 214.13037109 C-69.82072266 215.45037109 -70.15072266 216.77037109 -70.49072266 218.13037109 C-71.15072266 218.13037109 -71.81072266 218.13037109 -72.49072266 218.13037109 C-72.59384766 218.89349609 -72.69697266 219.65662109 -72.80322266 220.44287109 C-73.53783459 223.31453593 -74.16232915 224.36079203 -76.49072266 226.13037109 C-77.15072266 226.13037109 -77.81072266 226.13037109 -78.49072266 226.13037109 C-78.58482422 226.69240234 -78.67892578 227.25443359 -78.77587891 227.83349609 C-79.66666356 230.69568941 -81.07944147 232.5280757 -82.92822266 234.88037109 C-83.85441406 236.07919922 -83.85441406 236.07919922 -84.79931641 237.30224609 C-85.35748047 237.90552734 -85.91564453 238.50880859 -86.49072266 239.13037109 C-87.15072266 239.13037109 -87.81072266 239.13037109 -88.49072266 239.13037109 C-88.59384766 239.70787109 -88.69697266 240.28537109 -88.80322266 240.88037109 C-89.5996873 243.48698267 -90.68137542 245.10390219 -92.49072266 247.13037109 C-93.15072266 247.13037109 -93.81072266 247.13037109 -94.49072266 247.13037109 C-94.82072266 248.45037109 -95.15072266 249.77037109 -95.49072266 251.13037109 C-96.15072266 251.13037109 -96.81072266 251.13037109 -97.49072266 251.13037109 C-97.77947266 251.89349609 -98.06822266 252.65662109 -98.36572266 253.44287109 C-99.49072266 256.13037109 -99.49072266 256.13037109 -101.49072266 259.13037109 C-102.15072266 259.13037109 -102.81072266 259.13037109 -103.49072266 259.13037109 C-103.82072266 260.45037109 -104.15072266 261.77037109 -104.49072266 263.13037109 C-105.15072266 263.13037109 -105.81072266 263.13037109 -106.49072266 263.13037109 C-106.82072266 264.12037109 -107.15072266 265.11037109 -107.49072266 266.13037109 C-108.15072266 266.13037109 -108.81072266 266.13037109 -109.49072266 266.13037109 C-109.82072266 267.45037109 -110.15072266 268.77037109 -110.49072266 270.13037109 C-111.15072266 270.13037109 -111.81072266 270.13037109 -112.49072266 270.13037109 C-112.55259766 270.87287109 -112.61447266 271.61537109 -112.67822266 272.38037109 C-113.73597236 275.96044701 -115.55934922 276.93184102 -118.49072266 279.13037109 C-118.82072266 280.12037109 -119.15072266 281.11037109 -119.49072266 282.13037109 C-120.15072266 282.13037109 -120.81072266 282.13037109 -121.49072266 282.13037109 C-121.82072266 283.12037109 -122.15072266 284.11037109 -122.49072266 285.13037109 C-123.15072266 285.13037109 -123.81072266 285.13037109 -124.49072266 285.13037109 C-124.49072266 286.12037109 -124.49072266 287.11037109 -124.49072266 288.13037109 C-128.38832185 287.86462569 -130.05379037 287.56730338 -132.86572266 284.75537109 C-134.49072266 282.13037109 -134.49072266 282.13037109 -134.49072266 279.13037109 C-135.48072266 278.80037109 -136.47072266 278.47037109 -137.49072266 278.13037109 C-139.31494141 275.69677734 -139.31494141 275.69677734 -141.17822266 272.69287109 C-141.80083984 271.70416016 -142.42345703 270.71544922 -143.06494141 269.69677734 C-144.49072266 267.13037109 -144.49072266 267.13037109 -144.49072266 265.13037109 C-145.15072266 265.13037109 -145.81072266 265.13037109 -146.49072266 265.13037109 C-146.82072266 263.48037109 -147.15072266 261.83037109 -147.49072266 260.13037109 C-148.15072266 260.13037109 -148.81072266 260.13037109 -149.49072266 260.13037109 C-149.82072266 258.15037109 -150.15072266 256.17037109 -150.49072266 254.13037109 C-151.15072266 254.13037109 -151.81072266 254.13037109 -152.49072266 254.13037109 C-152.82072266 252.15037109 -153.15072266 250.17037109 -153.49072266 248.13037109 C-154.15072266 248.13037109 -154.81072266 248.13037109 -155.49072266 248.13037109 C-155.82072266 246.15037109 -156.15072266 244.17037109 -156.49072266 242.13037109 C-157.15072266 242.13037109 -157.81072266 242.13037109 -158.49072266 242.13037109 C-158.82072266 239.82037109 -159.15072266 237.51037109 -159.49072266 235.13037109 C-160.15072266 235.13037109 -160.81072266 235.13037109 -161.49072266 235.13037109 C-161.82072266 232.16037109 -162.15072266 229.19037109 -162.49072266 226.13037109 C-163.15072266 226.13037109 -163.81072266 226.13037109 -164.49072266 226.13037109 C-164.82072266 222.50037109 -165.15072266 218.87037109 -165.49072266 215.13037109 C-166.15072266 215.13037109 -166.81072266 215.13037109 -167.49072266 215.13037109 C-167.62349609 214.13134766 -167.75626953 213.13232422 -167.89306641 212.10302734 C-168.15796875 210.1675 -168.15796875 210.1675 -168.42822266 208.19287109 C-168.60224609 206.90509766 -168.77626953 205.61732422 -168.95556641 204.29052734 C-169.15234689 201.27570796 -169.15234689 201.27570796 -170.49072266 200.13037109 C-171.81014151 191.92065375 -171.64624159 183.5239608 -171.62109375 175.23291016 C-171.61573078 173.13355288 -171.6210738 171.03440945 -171.62744141 168.93505859 C-171.63082013 161.28292662 -171.37489596 153.73546997 -170.49072266 146.13037109 C-169.83072266 146.13037109 -169.17072266 146.13037109 -168.49072266 146.13037109 C-168.50232422 145.55029297 -168.51392578 144.97021484 -168.52587891 144.37255859 C-168.57834439 139.83054649 -168.40823328 135.6032354 -167.49072266 131.13037109 C-166.83072266 131.13037109 -166.17072266 131.13037109 -165.49072266 131.13037109 C-165.16072266 127.50037109 -164.83072266 123.87037109 -164.49072266 120.13037109 C-163.83072266 120.13037109 -163.17072266 120.13037109 -162.49072266 120.13037109 C-162.16072266 117.16037109 -161.83072266 114.19037109 -161.49072266 111.13037109 C-160.83072266 111.13037109 -160.17072266 111.13037109 -159.49072266 111.13037109 C-159.16072266 108.82037109 -158.83072266 106.51037109 -158.49072266 104.13037109 C-157.83072266 104.13037109 -157.17072266 104.13037109 -156.49072266 104.13037109 C-156.16072266 102.15037109 -155.83072266 100.17037109 -155.49072266 98.13037109 C-154.83072266 98.13037109 -154.17072266 98.13037109 -153.49072266 98.13037109 C-153.16072266 96.15037109 -152.83072266 94.17037109 -152.49072266 92.13037109 C-151.83072266 92.13037109 -151.17072266 92.13037109 -150.49072266 92.13037109 C-150.16072266 90.15037109 -149.83072266 88.17037109 -149.49072266 86.13037109 C-148.83072266 86.13037109 -148.17072266 86.13037109 -147.49072266 86.13037109 C-147.31174438 85.25396973 -147.31174438 85.25396973 -147.12915039 84.35986328 C-146.0497503 80.59042482 -143.72742691 77.60660967 -141.55322266 74.38037109 C-141.09753906 73.68298828 -140.64185547 72.98560547 -140.17236328 72.26708984 C-139.00184805 70.51560146 -137.75200247 68.81767388 -136.49072266 67.13037109 C-135.83072266 67.13037109 -135.17072266 67.13037109 -134.49072266 67.13037109 C-134.38630859 66.54642578 -134.28189453 65.96248047 -134.17431641 65.36083984 C-133.38850793 62.79685904 -132.32498354 61.43989253 -130.55322266 59.44287109 C-130.02857422 58.84087891 -129.50392578 58.23888672 -128.96337891 57.61865234 C-127.49072266 56.13037109 -127.49072266 56.13037109 -125.49072266 55.13037109 C-125.16072266 54.14037109 -124.83072266 53.15037109 -124.49072266 52.13037109 C-123.83072266 52.13037109 -123.17072266 52.13037109 -122.49072266 52.13037109 C-122.16072266 51.14037109 -121.83072266 50.15037109 -121.49072266 49.13037109 C-120.83072266 49.13037109 -120.17072266 49.13037109 -119.49072266 49.13037109 C-119.49072266 48.47037109 -119.49072266 47.81037109 -119.49072266 47.13037109 C-118.50072266 46.80037109 -117.51072266 46.47037109 -116.49072266 46.13037109 C-115.14648926 44.47248324 -113.81453782 42.80460792 -112.49072266 41.13037109 C-108.05829022 37.13037109 -108.05829022 37.13037109 -104.49072266 37.13037109 C-104.16072266 36.14037109 -103.83072266 35.15037109 -103.49072266 34.13037109 C-102.83072266 34.13037109 -102.17072266 34.13037109 -101.49072266 34.13037109 C-101.49072266 33.47037109 -101.49072266 32.81037109 -101.49072266 32.13037109 C-100.50072266 31.80037109 -99.51072266 31.47037109 -98.49072266 31.13037109 C-98.16072266 30.47037109 -97.83072266 29.81037109 -97.49072266 29.13037109 C-94.92822266 28.50537109 -94.92822266 28.50537109 -92.49072266 28.13037109 C-92.49072266 27.47037109 -92.49072266 26.81037109 -92.49072266 26.13037109 C-72.94776733 15.13037109 -72.94776733 15.13037109 -67.49072266 15.13037109 C-67.49072266 14.47037109 -67.49072266 13.81037109 -67.49072266 13.13037109 C-64.02572266 12.63537109 -64.02572266 12.63537109 -60.49072266 12.13037109 C-60.49072266 11.47037109 -60.49072266 10.81037109 -60.49072266 10.13037109 C-56.03572266 9.63537109 -56.03572266 9.63537109 -51.49072266 9.13037109 C-51.49072266 8.47037109 -51.49072266 7.81037109 -51.49072266 7.13037109 C-47.86072266 6.80037109 -44.23072266 6.47037109 -40.49072266 6.13037109 C-40.49072266 5.47037109 -40.49072266 4.81037109 -40.49072266 4.13037109 C-35.44070044 3.0944691 -30.61655877 3.02785437 -25.49072266 3.13037109 C-25.49072266 2.47037109 -25.49072266 1.81037109 -25.49072266 1.13037109 C-16.98261178 0.25359629 -8.55127968 -0.0271072 0 0 Z " fill="#F15E75" transform="translate(239.49072265625,79.86962890625)"/>
<path d="M0 0 C6.11883953 1.13311843 9.25230003 4.25291337 13 9 C13.99 9.33 14.98 9.66 16 10 C16 10.66 16 11.32 16 12 C16.99 12.33 17.98 12.66 19 13 C19 13.66 19 14.32 19 15 C19.99 15.33 20.98 15.66 22 16 C22 16.66 22 17.32 22 18 C22.99 18.33 23.98 18.66 25 19 C25 19.66 25 20.32 25 21 C25.66 21 26.32 21 27 21 C27.33 21.99 27.66 22.98 28 24 C28.825 24.61875 29.65 25.2375 30.5 25.875 C33.31924232 28.27135597 33.69973137 29.3967764 34 33 C34.99 33.33 35.98 33.66 37 34 C37 34.66 37 35.32 37 36 C37.66 36 38.32 36 39 36 C39.33 36.99 39.66 37.98 40 39 C40.515625 39.495 41.03125 39.99 41.5625 40.5 C43 42 43 42 43 45 C43.66 45 44.32 45 45 45 C45.33 45.99 45.66 46.98 46 48 C46.66 48.33 47.32 48.66 48 49 C48.625 52.0625 48.625 52.0625 49 55 C49.66 55 50.32 55 51 55 C55.57142857 62.28571429 55.57142857 62.28571429 55 67 C55.66 67 56.32 67 57 67 C57.33 68.98 57.66 70.96 58 73 C58.66 73 59.32 73 60 73 C60.67812114 74.8708878 61.3419946 76.74694293 62 78.625 C62.37125 79.66914063 62.7425 80.71328125 63.125 81.7890625 C64.00483564 85.01774506 64.15988262 87.67244294 64 91 C64.66 91 65.32 91 66 91 C66.44539877 99.7595092 66.44539877 99.7595092 63 104 C62.34 104 61.68 104 61 104 C60.67 105.32 60.34 106.64 60 108 C59.34 108 58.68 108 58 108 C57.67 108.99 57.34 109.98 57 111 C56.34 111 55.68 111 55 111 C54.896875 111.763125 54.79375 112.52625 54.6875 113.3125 C53.95288806 116.18416484 53.3283935 117.23042094 51 119 C50.34 119 49.68 119 49 119 C48.67 120.32 48.34 121.64 48 123 C47.34 123 46.68 123 46 123 C45.67 123.99 45.34 124.98 45 126 C44.34 126 43.68 126 43 126 C42.87625 126.804375 42.7525 127.60875 42.625 128.4375 C42.41875 129.283125 42.2125 130.12875 42 131 C41.34 131.33 40.68 131.66 40 132 C39.67 132.99 39.34 133.98 39 135 C38.34 135 37.68 135 37 135 C36.67 135.99 36.34 136.98 36 138 C35.34 138 34.68 138 34 138 C33.8453125 139.1446875 33.8453125 139.1446875 33.6875 140.3125 C32.95288806 143.18416484 32.3283935 144.23042094 30 146 C29.34 146 28.68 146 28 146 C27.67 147.32 27.34 148.64 27 150 C26.34 150 25.68 150 25 150 C24.7525 150.7425 24.505 151.485 24.25 152.25 C22.90095207 155.21790544 21.31949313 156.75532923 19 159 C18.67 159.99 18.34 160.98 18 162 C17.34 162 16.68 162 16 162 C15.67 162.99 15.34 163.98 15 165 C14.34 165 13.68 165 13 165 C12.896875 165.556875 12.79375 166.11375 12.6875 166.6875 C11.29938302 171.35662074 8.64738883 174.82324198 5 178 C4.34 178 3.68 178 3 178 C2.814375 179.2065625 2.814375 179.2065625 2.625 180.4375 C2.41875 181.283125 2.2125 182.12875 2 183 C1.34 183.33 0.68 183.66 0 184 C-0.33 184.99 -0.66 185.98 -1 187 C-1.66 187 -2.32 187 -3 187 C-3.33 187.99 -3.66 188.98 -4 190 C-4.66 190 -5.32 190 -6 190 C-6.1546875 191.1446875 -6.1546875 191.1446875 -6.3125 192.3125 C-7.04711194 195.18416484 -7.6716065 196.23042094 -10 198 C-10.66 198 -11.32 198 -12 198 C-12.33 199.32 -12.66 200.64 -13 202 C-13.66 202 -14.32 202 -15 202 C-15.33 202.99 -15.66 203.98 -16 205 C-16.66 205 -17.32 205 -18 205 C-18.185625 206.2065625 -18.185625 206.2065625 -18.375 207.4375 C-18.58125 208.283125 -18.7875 209.12875 -19 210 C-19.66 210.33 -20.32 210.66 -21 211 C-21.33 211.99 -21.66 212.98 -22 214 C-22.66 214 -23.32 214 -24 214 C-24.33 214.99 -24.66 215.98 -25 217 C-25.66 217 -26.32 217 -27 217 C-27.1546875 218.1446875 -27.1546875 218.1446875 -27.3125 219.3125 C-28.04711194 222.18416484 -28.6716065 223.23042094 -31 225 C-31.66 225 -32.32 225 -33 225 C-33.33 226.32 -33.66 227.64 -34 229 C-34.66 229 -35.32 229 -36 229 C-36.2475 229.7425 -36.495 230.485 -36.75 231.25 C-38.09904793 234.21790544 -39.68050687 235.75532923 -42 238 C-42.33 238.99 -42.66 239.98 -43 241 C-44.4375 242.6875 -44.4375 242.6875 -46 244 C-46.66 244 -47.32 244 -48 244 C-48.33 245.32 -48.66 246.64 -49 248 C-49.66 248 -50.32 248 -51 248 C-51.0825 248.7425 -51.165 249.485 -51.25 250.25 C-52.14809799 253.54302595 -53.38416074 254.85976788 -56 257 C-56.66 257 -57.32 257 -58 257 C-58.1546875 257.8353125 -58.1546875 257.8353125 -58.3125 258.6875 C-59.14178408 261.4769101 -60.34299056 263.6139064 -62 266 C-62.66 266 -63.32 266 -64 266 C-64.33 266.99 -64.66 267.98 -65 269 C-65.66 269 -66.32 269 -67 269 C-67.28875 269.763125 -67.5775 270.52625 -67.875 271.3125 C-69 274 -69 274 -71 277 C-71.66 277 -72.32 277 -73 277 C-73.33 278.32 -73.66 279.64 -74 281 C-74.66 281 -75.32 281 -76 281 C-76.2475 281.7425 -76.495 282.485 -76.75 283.25 C-78.09904793 286.21790544 -79.68050687 287.75532923 -82 290 C-82.33 290.99 -82.66 291.98 -83 293 C-83.66 293 -84.32 293 -85 293 C-85.33 293.99 -85.66 294.98 -86 296 C-86.66 296 -87.32 296 -88 296 C-88.33 297.32 -88.66 298.64 -89 300 C-89.66 300 -90.32 300 -91 300 C-91.33 300.99 -91.66 301.98 -92 303 C-92.66 303 -93.32 303 -94 303 C-94.185625 304.2065625 -94.185625 304.2065625 -94.375 305.4375 C-94.58125 306.283125 -94.7875 307.12875 -95 308 C-95.66 308.33 -96.32 308.66 -97 309 C-97.33 309.99 -97.66 310.98 -98 312 C-120.59489033 312.20638953 -120.59489033 312.20638953 -131 311 C-131 310.34 -131 309.68 -131 309 C-135.29 308.67 -139.58 308.34 -144 308 C-144 307.34 -144 306.68 -144 306 C-147.63 305.67 -151.26 305.34 -155 305 C-155 304.34 -155 303.68 -155 303 C-156.27875 302.9175 -157.5575 302.835 -158.875 302.75 C-164.34050801 302.16782347 -169.01815378 300.23611052 -174 298 C-174 297.34 -174 296.68 -174 296 C-175.98 295.67 -177.96 295.34 -180 295 C-180 294.34 -180 293.68 -180 293 C-181.98 292.67 -183.96 292.34 -186 292 C-186 291.34 -186 290.68 -186 290 C-186.969375 289.87625 -187.93875 289.7525 -188.9375 289.625 C-190.4534375 289.315625 -190.4534375 289.315625 -192 289 C-192.33 288.34 -192.66 287.68 -193 287 C-193.99 286.67 -194.98 286.34 -196 286 C-196 285.34 -196 284.68 -196 284 C-196.804375 283.87625 -197.60875 283.7525 -198.4375 283.625 C-199.7059375 283.315625 -199.7059375 283.315625 -201 283 C-201.33 282.34 -201.66 281.68 -202 281 C-202.99 280.67 -203.98 280.34 -205 280 C-205 279.34 -205 278.68 -205 278 C-205.99 277.67 -206.98 277.34 -208 277 C-208 276.34 -208 275.68 -208 275 C-208.66 275 -209.32 275 -210 275 C-210 273.68 -210 272.36 -210 271 C-209.34 271 -208.68 271 -208 271 C-207.896875 270.236875 -207.79375 269.47375 -207.6875 268.6875 C-206.95288806 265.81583516 -206.3283935 264.76957906 -204 263 C-203.34 263 -202.68 263 -202 263 C-201.505 261.02 -201.505 261.02 -201 259 C-200.34 259 -199.68 259 -199 259 C-198.62875 257.88625 -198.62875 257.88625 -198.25 256.75 C-196.90095207 253.78209456 -195.31949313 252.24467077 -193 250 C-192.67 249.01 -192.34 248.02 -192 247 C-191.34 247 -190.68 247 -190 247 C-189.67 246.01 -189.34 245.02 -189 244 C-188.34 244 -187.68 244 -187 244 C-186.67 242.68 -186.34 241.36 -186 240 C-185.34 240 -184.68 240 -184 240 C-183.5978125 238.88625 -183.5978125 238.88625 -183.1875 237.75 C-182.04723249 235.10938051 -180.90619694 233.14447156 -179 231 C-178.34 231 -177.68 231 -177 231 C-176.896875 230.4225 -176.79375 229.845 -176.6875 229.25 C-175.89103535 226.64338842 -174.80934723 225.0264689 -173 223 C-172.34 223 -171.68 223 -171 223 C-170.67 221.68 -170.34 220.36 -170 219 C-169.34 219 -168.68 219 -168 219 C-167.896875 218.236875 -167.79375 217.47375 -167.6875 216.6875 C-166.95288806 213.81583516 -166.3283935 212.76957906 -164 211 C-163.34 211 -162.68 211 -162 211 C-161.67 209.68 -161.34 208.36 -161 207 C-160.34 207 -159.68 207 -159 207 C-158.67 206.01 -158.34 205.02 -158 204 C-157.34 204 -156.68 204 -156 204 C-155.67 202.35 -155.34 200.7 -155 199 C-151.62537285 199.54723683 -149.91765 200.0549 -147 202 C-147 202.66 -147 203.32 -147 204 C-146.46632812 204.09539062 -145.93265625 204.19078125 -145.3828125 204.2890625 C-142.25934469 205.22098241 -139.7043884 206.7591806 -136.875 208.375 C-125.35847171 214.66142708 -114.52788684 216.19938032 -101.5625 216.1875 C-100.72992676 216.18741943 -99.89735352 216.18733887 -99.03955078 216.18725586 C-93.91684021 216.13966565 -89.14573612 215.75030597 -84.15625 214.51171875 C-80.48028644 213.63934334 -76.75585324 213.36346967 -73 213 C-73 212.34 -73 211.68 -73 211 C-66.33333333 207.66666667 -59.66666667 204.33333333 -53 201 C-53 200.34 -53 199.68 -53 199 C-51.4609375 197.5546875 -51.4609375 197.5546875 -49.375 195.875 C-45.6754895 192.75927751 -42.9374622 189.49453234 -40.2265625 185.50390625 C-39.82179688 185.00761719 -39.41703125 184.51132812 -39 184 C-38.34 184 -37.68 184 -37 184 C-36.87093262 183.41154297 -36.74186523 182.82308594 -36.60888672 182.21679688 C-35.47021405 178.07118829 -33.11392736 174.31122227 -31.05859375 170.546875 C-25.8337605 160.52451828 -24.45770945 150.31762832 -24.5625 139.125 C-24.57007324 137.98530762 -24.57764648 136.84561523 -24.58544922 135.67138672 C-24.82812505 123.25949234 -27.75438602 113.60126341 -33.6328125 102.62109375 C-34.93405883 100.12641865 -36.00185043 97.62846053 -37 95 C-37.66 95 -38.32 95 -39 95 C-40.00739746 93.33779419 -41.00522955 91.66979326 -42 90 C-45.45157001 85.36231124 -45.45157001 85.36231124 -50 82 C-50 81.34 -50 80.68 -50 80 C-50.99 79.67 -51.98 79.34 -53 79 C-53 78.34 -53 77.68 -53 77 C-53.99 76.67 -54.98 76.34 -56 76 C-55.67 74.02 -55.34 72.04 -55 70 C-54.34 70 -53.68 70 -53 70 C-52.76152344 69.2884375 -52.52304687 68.576875 -52.27734375 67.84375 C-50.79605857 64.54596526 -48.90983005 62.24433332 -46.5625 59.5 C-44.24132459 56.77730331 -42.14499087 54.24836083 -40.33984375 51.15625 C-39.89769531 50.4446875 -39.45554687 49.733125 -39 49 C-38.34 49 -37.68 49 -37 49 C-36.67 47.68 -36.34 46.36 -36 45 C-35.34 45 -34.68 45 -34 45 C-33.67 44.01 -33.34 43.02 -33 42 C-32.34 42 -31.68 42 -31 42 C-30.8453125 40.8553125 -30.8453125 40.8553125 -30.6875 39.6875 C-29.95288806 36.81583516 -29.3283935 35.76957906 -27 34 C-26.34 34 -25.68 34 -25 34 C-24.67 32.68 -24.34 31.36 -24 30 C-23.34 30 -22.68 30 -22 30 C-21.71125 29.4225 -21.4225 28.845 -21.125 28.25 C-20.568125 27.13625 -20.568125 27.13625 -20 26 C-19.67 25.278125 -19.34 24.55625 -19 23.8125 C-18 22 -18 22 -16 21 C-15.67 20.01 -15.34 19.02 -15 18 C-14.34 18 -13.68 18 -13 18 C-12.71125 17.4225 -12.4225 16.845 -12.125 16.25 C-11.568125 15.13625 -11.568125 15.13625 -11 14 C-10.690625 13.319375 -10.38125 12.63875 -10.0625 11.9375 C-8.931399 9.87490406 -7.80445083 8.50370902 -6 7 C-5.34 7 -4.68 7 -4 7 C-3.67 5.68 -3.34 4.36 -3 3 C-2.34 3 -1.68 3 -1 3 C-0.67 2.01 -0.34 1.02 0 0 Z " fill="#FFDB28" transform="translate(343,114)"/>
<path d="M0 0 C1.65 0.33 3.3 0.66 5 1 C5.58606953 13.524523 3.80233856 25.6360853 2 38 C1.34 38 0.68 38 0 38 C0.16917435 44.98228666 1.52752643 51.2826669 3.5 57.9375 C5.58045266 64.96840078 6.84102769 71.62946583 7 79 C7.66 79 8.32 79 9 79 C9.33 82.3 9.66 85.6 10 89 C10.66 89 11.32 89 12 89 C12.33 92.96 12.66 96.92 13 101 C13.66 101 14.32 101 15 101 C15.33 104.96 15.66 108.92 16 113 C16.66 113 17.32 113 18 113 C18.12117187 113.65226562 18.24234375 114.30453125 18.3671875 114.9765625 C19.10709712 118.83547573 19.8376181 122.53089673 21.125 126.25 C22.09465144 129.29747596 22.15135508 131.82154339 22 135 C22.66 135 23.32 135 24 135 C24.33 138.63 24.66 142.26 25 146 C25.66 146 26.32 146 27 146 C27 148.97 27 151.94 27 155 C25.61541595 154.99920441 24.23083191 154.99840881 22.80429077 154.99758911 C9.71110805 154.99397583 -3.38168355 155.02194451 -16.47474098 155.0802784 C-23.20492204 155.10965844 -29.93479004 155.12814011 -36.66503906 155.12011719 C-43.16868478 155.11349617 -49.67164742 155.13616791 -56.17515182 155.17855453 C-58.6476231 155.18963626 -61.12016406 155.1904309 -63.59263992 155.18042374 C-77.11482307 155.13273999 -88.05655401 155.2649761 -100 162 C-101.84489635 162.81303605 -103.69770027 163.60871538 -105.5625 164.375 C-106.30628906 164.69210937 -107.05007813 165.00921875 -107.81640625 165.3359375 C-110.30210498 166.0918745 -112.41619177 166.11806505 -115 166 C-115 166.66 -115 167.32 -115 168 C-118.3 168.33 -121.6 168.66 -125 169 C-125 169.66 -125 170.32 -125 171 C-125.99 171 -126.98 171 -128 171 C-128 169.35 -128 167.7 -128 166 C-127.34 166 -126.68 166 -126 166 C-125.690625 165.01 -125.690625 165.01 -125.375 164 C-123.50875748 159.92819814 -121.02438473 156.31203002 -118 153 C-117.34 153 -116.68 153 -116 153 C-115.84337891 152.13955078 -115.84337891 152.13955078 -115.68359375 151.26171875 C-114.89000159 148.63606241 -113.72844366 146.98352193 -112.0625 144.8125 C-111.53785156 144.11769531 -111.01320313 143.42289063 -110.47265625 142.70703125 C-109 141 -109 141 -107 140 C-106.67 139.01 -106.34 138.02 -106 137 C-105.34 137 -104.68 137 -104 137 C-103.71125 136.4225 -103.4225 135.845 -103.125 135.25 C-102.75375 134.5075 -102.3825 133.765 -102 133 C-101.690625 132.319375 -101.38125 131.63875 -101.0625 130.9375 C-99.931399 128.87490406 -98.80445083 127.50370902 -97 126 C-96.34 126 -95.68 126 -95 126 C-94.89558594 125.42765625 -94.79117188 124.8553125 -94.68359375 124.265625 C-93.88840501 121.63014232 -92.72098509 119.93968692 -91.0625 117.75 C-90.53785156 117.04359375 -90.01320313 116.3371875 -89.47265625 115.609375 C-88.74369141 114.81273437 -88.74369141 114.81273437 -88 114 C-87.34 114 -86.68 114 -86 114 C-85.505 112.02 -85.505 112.02 -85 110 C-84.34 110 -83.68 110 -83 110 C-82.62875 109.1646875 -82.62875 109.1646875 -82.25 108.3125 C-81 106 -81 106 -78.9375 103.4375 C-76.83615651 101.07973981 -76.83615651 101.07973981 -76 98 C-75.34 98 -74.68 98 -74 98 C-73.71125 97.401875 -73.4225 96.80375 -73.125 96.1875 C-72 94 -72 94 -70 91 C-69.34 91 -68.68 91 -68 91 C-67.7215625 90.42765625 -67.443125 89.8553125 -67.15625 89.265625 C-66.01726208 87.03382434 -64.80063617 84.89129126 -63.5 82.75 C-63.0771875 82.04359375 -62.654375 81.3371875 -62.21875 80.609375 C-61.8165625 80.07828125 -61.414375 79.5471875 -61 79 C-60.34 79 -59.68 79 -59 79 C-58.7525 78.46375 -58.505 77.9275 -58.25 77.375 C-56.69800001 74.42620001 -54.88585956 71.74796679 -53 69 C-52.57074219 68.3709375 -52.14148438 67.741875 -51.69921875 67.09375 C-48.24627159 62.12313579 -48.24627159 62.12313579 -46 61 C-45.67 60.01 -45.34 59.02 -45 58 C-44.34 58 -43.68 58 -43 58 C-42.7525 57.443125 -42.505 56.88625 -42.25 56.3125 C-41 54 -41 54 -38.9375 51.4375 C-36.83615651 49.07973981 -36.83615651 49.07973981 -36 46 C-35.34 46 -34.68 46 -34 46 C-33.71125 45.401875 -33.4225 44.80375 -33.125 44.1875 C-32 42 -32 42 -30 39 C-29.34 39 -28.68 39 -28 39 C-27.62875 38.195625 -27.62875 38.195625 -27.25 37.375 C-24.54455552 32.23465549 -21.15503965 27.89225885 -17.26953125 23.61328125 C-15.78226668 21.91040907 -15.78226668 21.91040907 -15 19 C-14.34 19 -13.68 19 -13 19 C-12.71125 18.401875 -12.4225 17.80375 -12.125 17.1875 C-11 15 -11 15 -9 12 C-8.34 12 -7.68 12 -7 12 C-6.71125 11.4225 -6.4225 10.845 -6.125 10.25 C-5.08333333 8.16666667 -4.04166667 6.08333333 -3 4 C-2.34 4 -1.68 4 -1 4 C-0.67 2.68 -0.34 1.36 0 0 Z " fill="#33EAF4" transform="translate(410,251)"/>
<path d="M0 0 C0.99 0.33 1.98 0.66 3 1 C2.0479279 2.00596297 1.08812654 3.00461563 0.125 4 C-0.40867187 4.556875 -0.94234375 5.11375 -1.4921875 5.6875 C-3 7 -3 7 -5 7 C-5 6.34 -5 5.68 -5 5 C-4.34 5 -3.68 5 -3 5 C-2.67 4.01 -2.34 3.02 -2 2 C-1.34 2 -0.68 2 0 2 C0 1.34 0 0.68 0 0 Z " fill="#F74878" transform="translate(120,127)"/>
</svg>
