<?xml version="1.0" standalone="no"?>
<!DOCTYPE svg PUBLIC "-//W3C//DTD SVG 20010904//EN"
 "http://www.w3.org/TR/2001/REC-SVG-20010904/DTD/svg10.dtd">
<svg version="1.0" xmlns="http://www.w3.org/2000/svg"
 width="150.000000pt" height="150.000000pt" viewBox="0 0 150.000000 150.000000"
 preserveAspectRatio="xMidYMid meet">

<g transform="translate(0.000000,150.000000) scale(0.100000,-0.100000)"
fill="#5472e2" stroke="none">
<path d="M0 750 l0 -745 750 0 750 0 0 745 0 745 -750 0 -750 0 0 -745z m986
575 c11 -2 33 -16 50 -30 28 -24 29 -29 34 -127 l5 -103 69 0 68 0 -6 -74 c-4
-41 -9 -86 -12 -100 -7 -32 -60 -71 -98 -71 l-27 0 3 -216 c3 -247 2 -244 90
-244 l49 0 -3 -92 -3 -93 -63 -3 c-34 -2 -101 1 -149 7 -82 9 -88 11 -122 47
l-36 38 -3 278 -3 278 -88 0 c-94 0 -130 -11 -169 -53 -34 -36 -44 -127 -40
-371 l3 -215 -118 -3 c-66 -2 -121 1 -124 5 -9 15 -2 491 8 557 9 60 36 123
67 162 8 9 11 23 6 30 -4 7 -4 10 1 6 4 -4 26 8 49 26 82 68 205 106 344 106
l62 0 0 119 c0 66 2 125 5 133 5 13 97 15 151 3z"/>
</g>
</svg>
