<?xml version="1.0" standalone="no"?>
<!DOCTYPE svg PUBLIC "-//W3C//DTD SVG 20010904//EN"
 "http://www.w3.org/TR/2001/REC-SVG-20010904/DTD/svg10.dtd">
<svg version="1.0" xmlns="http://www.w3.org/2000/svg"
 width="564.000000pt" height="423.000000pt" viewBox="0 0 564.000000 423.000000"
 preserveAspectRatio="xMidYMid meet">

<g transform="translate(0.000000,423.000000) scale(0.100000,-0.100000)"
fill="#000000" stroke="none">
<path d="M2292 2133 c-132 -318 -242 -585 -244 -593 -2 -13 18 -15 133 -18
l137 -3 40 98 c23 54 111 265 195 468 l154 370 241 5 c132 3 244 8 247 12 7 7
0 29 -57 166 l-30 72 -288 0 -287 0 -241 -577z"/>
<path d="M2790 2296 c-5 -14 -25 -64 -45 -111 -19 -47 -35 -90 -35 -95 0 -6
77 -11 192 -12 l193 -3 21 -45 c12 -25 24 -55 28 -67 l7 -23 -253 0 -254 0
-82 -197 c-46 -109 -82 -204 -82 -211 0 -10 31 -12 136 -10 l136 3 31 75 c18
41 36 81 40 88 12 17 410 17 425 0 5 -7 24 -48 42 -90 l32 -78 133 0 c74 0
136 3 138 8 2 4 -69 183 -158 397 l-163 390 -236 3 -236 2 -10 -24z"/>
</g>
</svg>
